<svg width="845" height="266" viewBox="0 0 845 266" fill="none" xmlns="http://www.w3.org/2000/svg">
<rect width="845" height="266" fill="#F5F5F5"/>
<rect width="845" height="266" fill="white"/>
<path d="M304.152 162.12C305.347 161.053 306.285 159.752 306.968 158.216C307.693 156.68 308.056 154.973 308.056 153.096C308.013 150.152 307.395 147.869 306.2 146.248C305.048 144.627 303.597 143.368 301.848 142.472C300.013 141.576 298.051 140.872 295.96 140.36C293.912 139.848 292.056 139.208 290.392 138.44C288.941 137.8 287.747 136.968 286.808 135.944C285.869 134.877 285.4 133.384 285.4 131.464C285.4 130.312 285.571 129.203 285.912 128.136C286.296 127.069 286.851 126.109 287.576 125.256C288.301 124.403 289.219 123.72 290.328 123.208C291.48 122.696 292.824 122.44 294.36 122.44C296.109 122.44 297.624 122.653 298.904 123.08C300.227 123.464 301.293 123.912 302.104 124.424V130.056H304.664V123.144C303.853 122.504 302.979 121.971 302.04 121.544C301.144 121.075 300.269 120.733 299.416 120.52C298.52 120.307 297.645 120.157 296.792 120.072C295.939 119.987 295.149 119.944 294.424 119.944C292.291 119.944 290.477 120.307 288.984 121.032C287.491 121.715 286.275 122.632 285.336 123.784C284.397 124.936 283.715 126.237 283.288 127.688C282.904 129.096 282.733 130.504 282.776 131.912C282.861 134.003 283.331 135.667 284.184 136.904C285.037 138.141 286.125 139.144 287.448 139.912C288.728 140.637 290.136 141.235 291.672 141.704C293.251 142.173 294.787 142.643 296.28 143.112C297.56 143.581 298.755 144.072 299.864 144.584C301.016 145.053 302.019 145.715 302.872 146.568C303.683 147.293 304.301 148.211 304.728 149.32C305.197 150.429 305.432 151.731 305.432 153.224C305.432 154.717 305.112 156.083 304.472 157.32C303.832 158.515 303.021 159.539 302.04 160.392C300.973 161.203 299.779 161.843 298.456 162.312C297.133 162.781 295.747 163.016 294.296 163.016C291.907 163.016 289.859 162.632 288.152 161.864C286.445 161.096 285.016 160.179 283.864 159.112V153.352H281.304V160.2C281.773 160.755 282.413 161.352 283.224 161.992C284.035 162.589 285.016 163.144 286.168 163.656C287.235 164.211 288.472 164.659 289.88 165C291.331 165.341 292.888 165.512 294.552 165.512C296.387 165.512 298.136 165.235 299.8 164.68C301.464 164.083 302.915 163.229 304.152 162.12ZM324.347 143.048C326.011 143.048 327.504 143.517 328.827 144.456C330.192 145.352 331.259 146.525 332.027 147.976C329.125 149.128 326.224 150.28 323.323 151.432C320.464 152.541 317.584 153.672 314.683 154.824C314.384 153.373 314.405 151.965 314.747 150.6C315.088 149.192 315.685 147.933 316.539 146.824C317.435 145.672 318.544 144.755 319.867 144.072C321.232 143.389 322.725 143.048 324.347 143.048ZM332.731 162.12L331.131 160.2C330.235 161.053 329.211 161.715 328.059 162.184C326.907 162.653 325.669 162.888 324.347 162.888C322.341 162.888 320.549 162.376 318.97 161.352C317.392 160.328 316.219 158.984 315.451 157.32C318.779 155.955 322.085 154.632 325.371 153.352C328.699 152.072 332.027 150.771 335.355 149.448C334.928 148.168 334.373 146.995 333.691 145.928C333.008 144.819 332.219 143.88 331.323 143.112C330.384 142.259 329.317 141.619 328.123 141.192C326.928 140.723 325.669 140.488 324.347 140.488C322.597 140.488 320.955 140.829 319.419 141.512C317.925 142.152 316.603 143.027 315.451 144.136C314.299 145.245 313.403 146.568 312.763 148.104C312.123 149.64 311.803 151.261 311.803 152.968C311.803 154.717 312.123 156.339 312.763 157.832C313.403 159.325 314.299 160.648 315.451 161.8C316.603 162.952 317.925 163.848 319.419 164.488C320.955 165.128 322.597 165.448 324.347 165.448C326.011 165.448 327.547 165.149 328.955 164.552C330.363 163.955 331.621 163.144 332.731 162.12ZM340.053 165H347.157V162.376C347.157 161.864 347.157 161.395 347.157 160.968C347.157 160.499 347.157 159.987 347.157 159.432C347.413 160.2 347.861 160.947 348.501 161.672C349.141 162.355 349.909 162.973 350.805 163.528C351.658 164.125 352.639 164.595 353.749 164.936C354.901 165.277 356.117 165.448 357.397 165.448C359.146 165.448 360.789 165.128 362.325 164.488C363.861 163.848 365.205 162.952 366.357 161.8C367.466 160.648 368.341 159.325 368.981 157.832C369.663 156.339 370.005 154.717 370.005 152.968C370.005 151.261 369.663 149.64 368.981 148.104C368.341 146.568 367.466 145.245 366.357 144.136C365.205 143.027 363.861 142.152 362.325 141.512C360.789 140.829 359.146 140.488 357.397 140.488C356.159 140.488 354.986 140.659 353.877 141C352.767 141.341 351.765 141.789 350.869 142.344C349.973 142.941 349.226 143.603 348.629 144.328C348.031 145.011 347.605 145.715 347.349 146.44C347.391 145.8 347.413 145.309 347.413 144.968C347.413 144.584 347.413 144.072 347.413 143.432V117H340.309V119.496H344.789V162.504H340.053V165ZM357.397 143.048C358.762 143.048 360.042 143.304 361.237 143.816C362.431 144.285 363.477 144.947 364.373 145.8C365.311 146.696 366.037 147.763 366.549 149C367.061 150.237 367.317 151.56 367.317 152.968C367.317 154.376 367.061 155.677 366.549 156.872C366.037 158.067 365.354 159.112 364.501 160.008C363.562 160.904 362.495 161.608 361.301 162.12C360.106 162.632 358.805 162.888 357.397 162.888C356.031 162.888 354.751 162.653 353.557 162.184C352.362 161.672 351.317 160.968 350.421 160.072C349.482 159.176 348.735 158.131 348.181 156.936C347.669 155.699 347.413 154.376 347.413 152.968C347.413 151.603 347.647 150.323 348.117 149.128C348.629 147.933 349.333 146.888 350.229 145.992C351.125 145.053 352.17 144.328 353.365 143.816C354.602 143.304 355.946 143.048 357.397 143.048ZM404.442 165V162.504H399.706V141H397.594C397.509 141.939 397.445 142.899 397.402 143.88C397.359 144.819 397.338 145.736 397.338 146.632C396.613 144.968 395.354 143.539 393.562 142.344C391.77 141.107 389.615 140.488 387.098 140.488C385.306 140.488 383.642 140.829 382.106 141.512C380.613 142.152 379.29 143.027 378.138 144.136C376.986 145.288 376.09 146.632 375.45 148.168C374.81 149.704 374.49 151.304 374.49 152.968C374.49 154.717 374.81 156.339 375.45 157.832C376.09 159.325 376.986 160.648 378.138 161.8C379.29 162.952 380.613 163.848 382.106 164.488C383.642 165.128 385.306 165.448 387.098 165.448C388.378 165.448 389.573 165.277 390.682 164.936C391.834 164.595 392.858 164.125 393.754 163.528C394.607 162.973 395.333 162.355 395.93 161.672C396.57 160.947 397.039 160.2 397.338 159.432C397.338 159.987 397.338 160.499 397.338 160.968C397.338 161.395 397.338 161.864 397.338 162.376V165H404.442ZM387.098 143.048C388.463 143.048 389.743 143.304 390.938 143.816C392.133 144.285 393.199 144.968 394.138 145.864C395.034 146.76 395.738 147.827 396.25 149.064C396.805 150.259 397.082 151.56 397.082 152.968C397.082 154.376 396.805 155.699 396.25 156.936C395.738 158.131 395.013 159.176 394.074 160.072C393.178 160.968 392.133 161.672 390.938 162.184C389.743 162.653 388.463 162.888 387.098 162.888C385.733 162.888 384.474 162.653 383.322 162.184C382.17 161.715 381.146 161.053 380.25 160.2C379.269 159.304 378.501 158.237 377.946 157C377.391 155.763 377.114 154.419 377.114 152.968C377.114 151.603 377.349 150.323 377.818 149.128C378.33 147.933 379.034 146.888 379.93 145.992C380.783 145.053 381.829 144.328 383.066 143.816C384.303 143.304 385.647 143.048 387.098 143.048ZM423.583 162.952C424.181 162.269 424.608 161.523 424.864 160.712C425.162 159.859 425.312 159.048 425.312 158.28C425.312 156.915 425.013 155.827 424.416 155.016C423.861 154.205 423.157 153.544 422.304 153.032C421.408 152.52 420.448 152.115 419.424 151.816C418.442 151.475 417.504 151.112 416.608 150.728C415.754 150.387 415.008 149.96 414.368 149.448C413.77 148.893 413.472 148.147 413.472 147.208C413.472 146.483 413.6 145.864 413.856 145.352C414.112 144.84 414.432 144.413 414.816 144.072C415.242 143.773 415.733 143.56 416.288 143.432C416.885 143.261 417.461 143.176 418.016 143.176C418.741 143.176 419.424 143.261 420.064 143.432C420.704 143.603 421.322 143.859 421.92 144.2V147.528H424.352V142.856C423.925 142.472 423.456 142.152 422.944 141.896C422.432 141.597 421.898 141.341 421.344 141.128C420.661 140.915 420.064 140.787 419.552 140.744C419.04 140.659 418.506 140.616 417.952 140.616C417.184 140.616 416.352 140.765 415.456 141.064C414.56 141.32 413.77 141.725 413.088 142.28C412.405 142.835 411.85 143.517 411.424 144.328C411.04 145.139 410.848 146.12 410.848 147.272C410.848 148.68 411.125 149.789 411.68 150.6C412.277 151.368 413.024 151.965 413.92 152.392C414.816 152.819 415.776 153.181 416.8 153.48C417.824 153.779 418.762 154.12 419.616 154.504C420.512 154.845 421.237 155.315 421.792 155.912C422.346 156.509 422.624 157.363 422.624 158.472C422.624 159.24 422.474 159.901 422.176 160.456C421.92 160.968 421.557 161.416 421.088 161.8C420.576 162.184 420.021 162.483 419.424 162.696C418.826 162.867 418.208 162.952 417.568 162.952C416.629 162.952 415.733 162.888 414.88 162.76C414.026 162.589 413.194 162.248 412.384 161.736V158.472H410.016V163.144C410.997 164.083 412.128 164.701 413.408 165C414.73 165.341 416.074 165.512 417.44 165.512C418.89 165.512 420.106 165.277 421.088 164.808C422.112 164.339 422.944 163.72 423.583 162.952ZM442.993 165V162.504H437.745V143.56H445.169V141H437.745V125.384H435.121V141H429.553V143.56H435.121V165H442.993ZM462.03 165V162.504H457.23V141H449.678V143.496H454.606V162.504H449.678V165H462.03ZM458.062 132.488C458.062 131.891 457.848 131.4 457.422 131.016C456.995 130.589 456.504 130.376 455.95 130.376C455.438 130.376 454.968 130.589 454.542 131.016C454.115 131.4 453.902 131.891 453.902 132.488C453.902 133.085 454.115 133.597 454.542 134.024C454.968 134.408 455.438 134.6 455.95 134.6C456.504 134.6 456.995 134.408 457.422 134.024C457.848 133.597 458.062 133.085 458.062 132.488ZM496.442 165V162.504H491.706V141H489.594C489.509 141.939 489.445 142.899 489.402 143.88C489.359 144.819 489.338 145.736 489.338 146.632C488.613 144.968 487.354 143.539 485.562 142.344C483.77 141.107 481.615 140.488 479.098 140.488C477.306 140.488 475.642 140.829 474.106 141.512C472.613 142.152 471.29 143.027 470.138 144.136C468.986 145.288 468.09 146.632 467.45 148.168C466.81 149.704 466.49 151.304 466.49 152.968C466.49 154.717 466.81 156.339 467.45 157.832C468.09 159.325 468.986 160.648 470.138 161.8C471.29 162.952 472.613 163.848 474.106 164.488C475.642 165.128 477.306 165.448 479.098 165.448C480.378 165.448 481.573 165.277 482.682 164.936C483.834 164.595 484.858 164.125 485.754 163.528C486.607 162.973 487.333 162.355 487.93 161.672C488.57 160.947 489.039 160.2 489.338 159.432C489.338 159.987 489.338 160.499 489.338 160.968C489.338 161.395 489.338 161.864 489.338 162.376V165H496.442ZM479.098 143.048C480.463 143.048 481.743 143.304 482.938 143.816C484.133 144.285 485.199 144.968 486.138 145.864C487.034 146.76 487.738 147.827 488.25 149.064C488.805 150.259 489.082 151.56 489.082 152.968C489.082 154.376 488.805 155.699 488.25 156.936C487.738 158.131 487.013 159.176 486.074 160.072C485.178 160.968 484.133 161.672 482.938 162.184C481.743 162.653 480.463 162.888 479.098 162.888C477.733 162.888 476.474 162.653 475.322 162.184C474.17 161.715 473.146 161.053 472.25 160.2C471.269 159.304 470.501 158.237 469.946 157C469.391 155.763 469.114 154.419 469.114 152.968C469.114 151.603 469.349 150.323 469.818 149.128C470.33 147.933 471.034 146.888 471.93 145.992C472.783 145.053 473.829 144.328 475.066 143.816C476.303 143.304 477.647 143.048 479.098 143.048ZM513.28 165V162.504H508.544V151.88C508.544 150.6 508.8 149.427 509.312 148.36C509.866 147.293 510.613 146.355 511.552 145.544C512.405 144.776 513.429 144.179 514.624 143.752C515.818 143.325 517.077 143.112 518.4 143.112C520.192 143.197 521.536 143.752 522.432 144.776C523.37 145.757 523.882 146.952 523.968 148.36V162.504H518.976V165H531.328V162.504H526.592V147.656C526.506 145.523 525.781 143.795 524.416 142.472C523.05 141.149 521.194 140.488 518.848 140.488C516.458 140.488 514.325 141.107 512.448 142.344C510.57 143.581 509.205 145.203 508.352 147.208C508.309 146.483 508.266 145.843 508.224 145.288C508.181 144.691 508.138 144.029 508.095 143.304L508.032 141H501.312V143.496H505.92V162.504H500.928V165H513.28ZM586.862 165V155.144H584.366V162.504H562.03V122.696H567.342V120.2H554.99V122.696H559.406V162.504H554.99V165H586.862ZM612.997 161.8C614.106 160.648 614.981 159.325 615.621 157.832C616.304 156.339 616.645 154.717 616.645 152.968C616.645 151.261 616.304 149.64 615.621 148.104C614.981 146.568 614.106 145.224 612.997 144.072C611.845 142.963 610.48 142.088 608.901 141.448C607.365 140.765 605.722 140.424 603.973 140.424C602.224 140.424 600.581 140.765 599.045 141.448C597.509 142.088 596.186 142.963 595.077 144.072C593.925 145.224 593.029 146.568 592.389 148.104C591.749 149.64 591.429 151.261 591.429 152.968C591.429 154.717 591.749 156.36 592.389 157.896C593.029 159.389 593.925 160.691 595.077 161.8C596.186 162.952 597.488 163.848 598.981 164.488C600.517 165.128 602.181 165.448 603.973 165.448C605.722 165.448 607.365 165.128 608.901 164.488C610.48 163.848 611.845 162.952 612.997 161.8ZM596.933 159.944C596.037 159.091 595.333 158.067 594.821 156.872C594.309 155.677 594.053 154.376 594.053 152.968C594.053 151.603 594.309 150.323 594.821 149.128C595.333 147.933 596.037 146.867 596.933 145.928C597.829 145.032 598.874 144.328 600.069 143.816C601.264 143.304 602.544 143.048 603.909 143.048C605.274 143.048 606.554 143.304 607.749 143.816C608.986 144.328 610.053 145.032 610.949 145.928C611.888 146.867 612.613 147.955 613.125 149.192C613.637 150.387 613.893 151.645 613.893 152.968C613.893 154.376 613.637 155.677 613.125 156.872C612.613 158.067 611.888 159.091 610.949 159.944C610.053 160.883 608.986 161.608 607.749 162.12C606.554 162.632 605.274 162.888 603.909 162.888C602.544 162.888 601.264 162.632 600.069 162.12C598.874 161.608 597.829 160.883 596.933 159.944ZM644.091 158.792V161.672L644.219 165H651.067V162.696H646.523V141H639.163V143.496H643.899V154.12C643.899 155.4 643.622 156.595 643.067 157.704C642.555 158.771 641.851 159.667 640.955 160.392C640.016 161.203 638.95 161.821 637.755 162.248C636.603 162.675 635.366 162.888 634.043 162.888C632.251 162.803 630.886 162.269 629.947 161.288C629.051 160.264 628.56 159.048 628.475 157.64V141H621.115V143.496H625.851V158.344C625.936 160.477 626.662 162.205 628.027 163.528C629.392 164.851 631.248 165.512 633.595 165.512C635.942 165.512 638.054 164.915 639.931 163.72C641.851 162.483 643.238 160.84 644.091 158.792ZM667.905 165V162.504H663.169V151.88C663.169 150.557 663.446 149.341 664.001 148.232C664.555 147.08 665.323 146.141 666.305 145.416C667.158 144.691 668.139 144.136 669.249 143.752C670.401 143.325 671.617 143.112 672.897 143.112L673.025 140.488C672.043 140.531 671.062 140.701 670.081 141C669.142 141.299 668.225 141.725 667.329 142.28C666.39 142.835 665.537 143.539 664.769 144.392C664.043 145.203 663.446 146.141 662.977 147.208C662.934 146.483 662.913 146.013 662.913 145.8C662.913 145.587 662.891 145.117 662.849 144.392L662.657 141H655.937V143.496H660.545V162.504H655.553V165H667.905ZM707.442 165V162.504H702.706V117H695.538V119.496H700.082V140.744C700.082 141.896 700.082 142.835 700.082 143.56C700.082 144.285 700.103 145.224 700.146 146.376C699.805 145.651 699.357 144.947 698.802 144.264C698.247 143.581 697.522 142.941 696.626 142.344C695.73 141.789 694.706 141.341 693.554 141C692.445 140.659 691.293 140.488 690.098 140.488C688.306 140.488 686.642 140.829 685.106 141.512C683.613 142.152 682.29 143.027 681.138 144.136C679.986 145.245 679.09 146.568 678.45 148.104C677.81 149.64 677.49 151.261 677.49 152.968C677.49 154.717 677.81 156.339 678.45 157.832C679.09 159.325 679.986 160.648 681.138 161.8C682.29 162.952 683.613 163.848 685.106 164.488C686.642 165.128 688.306 165.448 690.098 165.448C691.378 165.448 692.573 165.277 693.682 164.936C694.834 164.595 695.858 164.125 696.754 163.528C697.607 162.973 698.333 162.355 698.93 161.672C699.57 160.947 700.039 160.2 700.338 159.432C700.338 159.987 700.338 160.499 700.338 160.968C700.338 161.395 700.338 161.864 700.338 162.376V165H707.442ZM690.098 143.048C691.421 143.048 692.679 143.283 693.874 143.752C695.069 144.221 696.114 144.883 697.01 145.736C697.949 146.632 698.695 147.72 699.25 149C699.805 150.237 700.082 151.56 700.082 152.968C700.082 154.376 699.805 155.699 699.25 156.936C698.738 158.173 698.013 159.219 697.074 160.072C696.135 160.968 695.069 161.672 693.874 162.184C692.722 162.653 691.463 162.888 690.098 162.888C688.69 162.888 687.389 162.653 686.194 162.184C685.042 161.672 684.018 160.968 683.122 160.072C682.183 159.219 681.437 158.173 680.882 156.936C680.37 155.699 680.114 154.376 680.114 152.968C680.114 151.603 680.37 150.323 680.882 149.128C681.394 147.891 682.098 146.824 682.994 145.928C683.89 145.032 684.935 144.328 686.13 143.816C687.325 143.304 688.647 143.048 690.098 143.048Z" fill="black"/>
<line x1="249" y1="72" x2="249" y2="194" stroke="black" stroke-width="2"/>
<path d="M203.802 116.667H191.015L185.015 103H146.984L140.984 116.667H139V109.833H130V116.667H128.198C124.228 116.667 121 119.608 121 123.225V163.362C121 167.004 124.252 169.967 128.25 169.967H203.75C207.748 169.967 211 167.004 211 163.362V123.225C211 119.608 207.772 116.667 203.802 116.667ZM133 112.567H136V116.667H133V112.567ZM208 163.362C208 165.498 206.093 167.233 203.75 167.233H128.25C125.907 167.233 124 165.496 124 163.362V123.225C124 121.117 125.884 119.4 128.198 119.4H130H139H143.016L149.016 105.733H182.985L188.985 119.4H203.802C206.116 119.4 208 121.117 208 123.225V163.362Z" fill="black"/>
<path d="M166 115.3C151.112 115.3 139 126.336 139 139.9C139 153.464 151.112 164.5 166 164.5C180.888 164.5 193 153.464 193 139.9C193 126.336 180.888 115.3 166 115.3ZM166 161.767C152.767 161.767 142 151.957 142 139.9C142 127.843 152.767 118.033 166 118.033C179.233 118.033 190 127.843 190 139.9C190 151.957 179.233 161.767 166 161.767Z" fill="black"/>
<path d="M166 123.5C156.074 123.5 148 130.857 148 139.9C148 148.943 156.074 156.3 166 156.3C175.926 156.3 184 148.943 184 139.9C184 130.857 175.926 123.5 166 123.5ZM166 153.567C157.729 153.567 151 147.436 151 139.9C151 132.364 157.729 126.233 166 126.233C174.271 126.233 181 132.364 181 139.9C181 147.436 174.271 153.567 166 153.567Z" fill="black"/>
<path d="M199 122.133C195.691 122.133 193 124.585 193 127.6C193 130.615 195.691 133.067 199 133.067C202.309 133.067 205 130.615 205 127.6C205 124.585 202.309 122.133 199 122.133ZM199 130.333C197.345 130.333 196 129.107 196 127.6C196 126.093 197.345 124.867 199 124.867C200.655 124.867 202 126.093 202 127.6C202 129.107 200.655 130.333 199 130.333Z" fill="black"/>
</svg>
